<svg class="animated" id="freepik_stories-growth-curve" xmlns="http://www.w3.org/2000/svg" viewBox="0 0 500 500" version="1.1" xmlns:xlink="http://www.w3.org/1999/xlink" xmlns:svgjs="http://svgjs.com/svgjs"><style>svg#freepik_stories-growth-curve:not(.animated) .animable {opacity: 0;}svg#freepik_stories-growth-curve.animated #freepik--background-complete--inject-21 {animation: 1.5s Infinite  linear shake;animation-delay: 0s;}svg#freepik_stories-growth-curve.animated #freepik--Plant--inject-21 {animation: 1.5s Infinite  linear wind;animation-delay: 0s;}            @keyframes shake {                10%, 90% {                    transform: translate3d(-1px, 0, 0);                  }                  20%, 80% {                    transform: translate3d(2px, 0, 0);                  }                  30%, 50%, 70% {                    transform: translate3d(-4px, 0, 0);                  }                  40%, 60% {                    transform: translate3d(4px, 0, 0);                  }            }                    @keyframes wind {                0% {                    transform: rotate( 0deg );                }                25% {                    transform: rotate( 1deg );                }                75% {                    transform: rotate( -1deg );                }            }        </style><g id="freepik--background-complete--inject-21" class="animable animator-active" style="transform-origin: 250px 228.23px;"><rect x="416.78" y="398.49" width="33.12" height="0.25" style="fill: rgb(235, 235, 235); transform-origin: 433.34px 398.615px;" id="elj2fis7fjgfq" class="animable"></rect><rect x="322.53" y="401.21" width="8.69" height="0.25" style="fill: rgb(235, 235, 235); transform-origin: 326.875px 401.335px;" id="el7vfluicufbt" class="animable"></rect><rect x="396.59" y="389.21" width="19.19" height="0.25" style="fill: rgb(235, 235, 235); transform-origin: 406.185px 389.335px;" id="el3256xhrzwlo" class="animable"></rect><rect x="52.46" y="390.89" width="43.19" height="0.25" style="fill: rgb(235, 235, 235); transform-origin: 74.055px 391.015px;" id="eleu8u6ikjpnt" class="animable"></rect><rect x="104.56" y="390.89" width="6.33" height="0.25" style="fill: rgb(235, 235, 235); transform-origin: 107.725px 391.015px;" id="el82yacie2c6p" class="animable"></rect><rect x="131.47" y="395.11" width="93.68" height="0.25" style="fill: rgb(235, 235, 235); transform-origin: 178.31px 395.235px;" id="el8h398sob5nu" class="animable"></rect><path d="M237,337.8H43.92a5.71,5.71,0,0,1-5.71-5.71V60.66A5.71,5.71,0,0,1,43.92,55H237a5.71,5.71,0,0,1,5.71,5.71V332.09A5.71,5.71,0,0,1,237,337.8ZM43.92,55.2a5.47,5.47,0,0,0-5.46,5.46V332.09a5.47,5.47,0,0,0,5.46,5.46H237a5.47,5.47,0,0,0,5.46-5.46V60.66A5.47,5.47,0,0,0,237,55.2Z" style="fill: rgb(235, 235, 235); transform-origin: 140.46px 196.4px;" id="el7p42ay0vtom" class="animable"></path><path d="M453.31,337.8H260.21a5.72,5.72,0,0,1-5.71-5.71V60.66A5.72,5.72,0,0,1,260.21,55h193.1A5.71,5.71,0,0,1,459,60.66V332.09A5.71,5.71,0,0,1,453.31,337.8ZM260.21,55.2a5.47,5.47,0,0,0-5.46,5.46V332.09a5.47,5.47,0,0,0,5.46,5.46h193.1a5.47,5.47,0,0,0,5.46-5.46V60.66a5.47,5.47,0,0,0-5.46-5.46Z" style="fill: rgb(235, 235, 235); transform-origin: 356.75px 196.4px;" id="el7e1g4l11ovk" class="animable"></path><rect y="382.4" width="500" height="0.25" style="fill: rgb(235, 235, 235); transform-origin: 250px 382.525px;" id="elbf142w875fk" class="animable"></rect><path d="M428.78,140.85v6A18.08,18.08,0,0,1,439,151.14l4.27-4.27A24.06,24.06,0,0,0,428.78,140.85Z" style="fill: rgb(240, 240, 240); transform-origin: 436.025px 145.995px;" id="elw1h86dt0k6i" class="animable"></path><path d="M425.86,182.91a18.07,18.07,0,0,1-16.55-16.55h-6A24.09,24.09,0,0,0,425.86,189Z" style="fill: rgb(230, 230, 230); transform-origin: 414.585px 177.68px;" id="eljbt0bq2aogd" class="animable"></path><path d="M409.31,163.45a18.09,18.09,0,0,1,16.55-16.56v-6a24.11,24.11,0,0,0-22.59,22.6Z" style="fill: rgb(235, 235, 235); transform-origin: 414.565px 152.19px;" id="el0dsg1e8emert" class="animable"></path><path d="M445.36,148.93l-4.27,4.27a18.06,18.06,0,0,1-12.31,29.71v6a24.09,24.09,0,0,0,16.58-40Z" style="fill: rgb(224, 224, 224); transform-origin: 440.09px 168.91px;" id="el2crimgmm60h" class="animable"></path><path d="M245.87,153.75h4.44a2.75,2.75,0,0,1,2.75,2.75V285.59a0,0,0,0,1,0,0h-9.95a0,0,0,0,1,0,0V156.5A2.75,2.75,0,0,1,245.87,153.75Z" style="fill: rgb(230, 230, 230); transform-origin: 248.085px 219.67px;" id="elnvlr1yr6lb" class="animable"></path><path d="M248.93,153.75h-2.74a3.08,3.08,0,0,0-3.08,3.07V285.59h2.74V156.82A3.08,3.08,0,0,1,248.93,153.75Z" style="fill: rgb(240, 240, 240); transform-origin: 246.02px 219.67px;" id="elfyoes37m7db" class="animable"></path><rect x="240.29" y="277.08" width="15.66" height="105.57" style="fill: rgb(235, 235, 235); transform-origin: 248.12px 329.865px;" id="el4ylfnjqwt4x" class="animable"></rect><path d="M234.72,378.38h26.8a3.82,3.82,0,0,1,3.82,3.82v.44a0,0,0,0,1,0,0H230.9a0,0,0,0,1,0,0v-.44A3.82,3.82,0,0,1,234.72,378.38Z" style="fill: rgb(230, 230, 230); transform-origin: 248.12px 380.51px;" id="el6koguwc6le3" class="animable"></path><path d="M396.42,330.5h25.25a8.22,8.22,0,0,0,8.21-8.21V285.37a1.5,1.5,0,0,0-1.5-1.5h0a1.5,1.5,0,0,0-1.5,1.5v36.92a5.21,5.21,0,0,1-5.21,5.21H396.42Z" style="fill: rgb(224, 224, 224); transform-origin: 413.15px 307.185px;" id="el21cz1apk7bn" class="animable"></path><path d="M389.2,365.88V331.5l-2-.63a5.46,5.46,0,0,1-3.82-5.2h19.05a5.45,5.45,0,0,1-3.82,5.2l-2,.63v34.38L412.42,373v3l-19.53-6.83L373.36,376v-3Z" style="fill: rgb(224, 224, 224); transform-origin: 392.89px 350.835px;" id="elunupbuc4sf" class="animable"></path><path d="M368,327.5h49.81a5.41,5.41,0,0,0,5.41-5.41h0a5.41,5.41,0,0,0-5.41-5.4H368a5.4,5.4,0,0,0-5.4,5.4h0A5.4,5.4,0,0,0,368,327.5Z" style="fill: rgb(240, 240, 240); transform-origin: 392.91px 322.095px;" id="eluhtobwud9" class="animable"></path><path d="M426.58,298.36l2.69-38.44a5.4,5.4,0,0,0-5-5.76h0a5.4,5.4,0,0,0-5.77,5l-2.69,38.44a5.41,5.41,0,0,0,5,5.77h0A5.41,5.41,0,0,0,426.58,298.36Z" style="fill: rgb(235, 235, 235); transform-origin: 422.54px 278.765px;" id="elka5kehotu8p" class="animable"></path><path d="M409,378.11a3.42,3.42,0,1,0,3.42-3.42A3.42,3.42,0,0,0,409,378.11Z" style="fill: rgb(224, 224, 224); transform-origin: 412.42px 378.11px;" id="elwqtg8j7l2xa" class="animable"></path><path d="M369.94,378.11a3.42,3.42,0,1,0,3.42-3.42A3.42,3.42,0,0,0,369.94,378.11Z" style="fill: rgb(224, 224, 224); transform-origin: 373.36px 378.11px;" id="elym1vp93r90l" class="animable"></path><path d="M100.37,330.5H75.12a8.22,8.22,0,0,1-8.22-8.21V285.37a1.5,1.5,0,0,1,1.5-1.5h0a1.5,1.5,0,0,1,1.5,1.5v36.92a5.22,5.22,0,0,0,5.22,5.21h25.25Z" style="fill: rgb(224, 224, 224); transform-origin: 83.635px 307.185px;" id="elebdtg3vrhxj" class="animable"></path><path d="M107.59,365.88V331.5l2-.63a5.45,5.45,0,0,0,3.81-5.2h-19a5.46,5.46,0,0,0,3.82,5.2l2,.63v34.38L84.37,373v3l19.53-6.83L123.43,376v-3Z" style="fill: rgb(224, 224, 224); transform-origin: 103.9px 350.835px;" id="elchuippd64ks" class="animable"></path><path d="M128.8,327.5H79a5.41,5.41,0,0,1-5.4-5.41h0a5.4,5.4,0,0,1,5.4-5.4H128.8a5.41,5.41,0,0,1,5.41,5.4h0A5.41,5.41,0,0,1,128.8,327.5Z" style="fill: rgb(240, 240, 240); transform-origin: 103.905px 322.095px;" id="elvva5sfezsp" class="animable"></path><path d="M70.2,298.36l-2.69-38.44a5.4,5.4,0,0,1,5-5.76h0a5.4,5.4,0,0,1,5.77,5L81,297.61a5.41,5.41,0,0,1-5,5.77h0A5.41,5.41,0,0,1,70.2,298.36Z" style="fill: rgb(235, 235, 235); transform-origin: 74.255px 278.771px;" id="elsb1pgkqi2j" class="animable"></path><path d="M87.78,378.11a3.42,3.42,0,1,1-3.41-3.42A3.41,3.41,0,0,1,87.78,378.11Z" style="fill: rgb(224, 224, 224); transform-origin: 84.36px 378.11px;" id="elxoeyz5cxm4p" class="animable"></path><path d="M126.84,378.11a3.42,3.42,0,1,1-3.41-3.42A3.41,3.41,0,0,1,126.84,378.11Z" style="fill: rgb(224, 224, 224); transform-origin: 123.42px 378.11px;" id="elmkolfdtzt2o" class="animable"></path><polygon points="207.68 382.65 188.18 382.65 186.18 345.67 209.68 345.67 207.68 382.65" style="fill: rgb(235, 235, 235); transform-origin: 197.93px 364.16px;" id="el44m6i1993bp" class="animable"></polygon><polygon points="192.68 382.65 184.68 382.65 184.68 381 192.68 380 192.68 382.65" style="fill: rgb(224, 224, 224); transform-origin: 188.68px 381.325px;" id="el6ls5oripkw8" class="animable"></polygon><path d="M189.15,342.67h17.56a3,3,0,0,1,3,3v0a0,0,0,0,1,0,0H186.17a0,0,0,0,1,0,0v0a3,3,0,0,1,3-3Z" style="fill: rgb(224, 224, 224); transform-origin: 197.94px 344.17px;" id="elmwqyvf26ugf" class="animable"></path><polygon points="167.68 286.74 136.46 286.74 136.46 283 167.68 281 167.68 286.74" style="fill: rgb(224, 224, 224); transform-origin: 152.07px 283.87px;" id="elu1zn8uj9bd" class="animable"></polygon><rect x="121.51" y="290.55" width="92.33" height="12.78" style="fill: rgb(240, 240, 240); transform-origin: 167.675px 296.94px;" id="elle17d79vfj" class="animable"></rect><rect x="102.7" y="286.74" width="130.28" height="7.62" style="fill: rgb(250, 250, 250); transform-origin: 167.84px 290.55px;" id="elyj0faf7xuy" class="animable"></rect><polygon points="220.88 382.65 226.76 382.65 216.58 294.36 209.68 294.36 220.88 382.65" style="fill: rgb(230, 230, 230); transform-origin: 218.22px 338.505px;" id="elgfjqwicyjzw" class="animable"></polygon><polygon points="126 294.36 119.1 294.36 108.91 382.65 114.8 382.65 126 294.36" style="fill: rgb(230, 230, 230); transform-origin: 117.455px 338.505px;" id="el6rgwtpffu1" class="animable"></polygon><path d="M199.29,284.84q-4-19.86-8-39.74c-.38-1.89-3.28-1.09-2.9.8L196,283.74h-16.5a1.5,1.5,0,0,0,0,3h18.33A1.52,1.52,0,0,0,199.29,284.84Z" style="fill: rgb(224, 224, 224); transform-origin: 188.669px 265.38px;" id="elulxn92ohtfe" class="animable"></path><path d="M180.61,274.18h0l5.14-73.48h0a13.61,13.61,0,0,1,5.67,12.05L187.91,263A13.64,13.64,0,0,1,180.61,274.18Z" style="fill: rgb(250, 250, 250); transform-origin: 186.032px 237.44px;" id="elqss141q3w1" class="animable"></path><rect x="209.4" y="265.38" width="14.16" height="21.36" rx="2.9" style="fill: rgb(245, 245, 245); transform-origin: 216.48px 276.06px;" id="elthjbf5e3ra" class="animable"></rect><path d="M215,257.43c-2.21,0-4,.55-4,1.22s1.8-.24,4-.24a7.92,7.92,0,0,1,.85,0v4.84h1.26v-4.65c1.14.21,1.9.44,1.9,0C219,258,217.21,257.43,215,257.43Z" style="fill: rgb(224, 224, 224); transform-origin: 215.005px 260.34px;" id="el2cu53xby1ac" class="animable"></path><rect x="214.23" y="261.73" width="4.51" height="4.51" style="fill: rgb(240, 240, 240); transform-origin: 216.485px 263.985px;" id="el2diid1eadiz" class="animable"></rect><g id="eljkbrfy4bxhl"><rect x="282.94" y="290.55" width="92.33" height="12.78" style="fill: rgb(240, 240, 240); transform-origin: 329.105px 296.94px; transform: rotate(180deg);" class="animable" id="elj40wi8n8d7k"></rect></g><g id="elr2goo7oscsc"><rect x="263.8" y="286.74" width="130.28" height="7.62" style="fill: rgb(250, 250, 250); transform-origin: 328.94px 290.55px; transform: rotate(180deg);" class="animable" id="elqcajym71xes"></rect></g><polygon points="275.91 382.65 270.02 382.65 280.2 294.36 287.1 294.36 275.91 382.65" style="fill: rgb(230, 230, 230); transform-origin: 278.56px 338.505px;" id="elbjct5nqslqr" class="animable"></polygon><polygon points="370.79 294.36 377.69 294.36 387.87 382.65 381.98 382.65 370.79 294.36" style="fill: rgb(230, 230, 230); transform-origin: 379.33px 338.505px;" id="el8x83a0y9kwa" class="animable"></polygon><polygon points="348.63 286.74 379.84 286.74 379.84 283 348.63 281 348.63 286.74" style="fill: rgb(38, 50, 56); transform-origin: 364.235px 283.87px;" id="el121twj1zhde" class="animable"></polygon><g id="elx3br5su6pha"><polygon points="348.63 286.74 379.84 286.74 379.84 283 348.63 281 348.63 286.74" style="fill: rgb(255, 255, 255); opacity: 0.6; transform-origin: 364.235px 283.87px;" class="animable" id="elru6gwqf2xoj"></polygon></g><path d="M285.84,219.67v67.07h4.34l1-5.95a4.53,4.53,0,0,1,4.47-3.76H336a4.53,4.53,0,0,1,4.47,3.76l1,5.95h4.33V219.67Z" style="fill: rgb(250, 250, 250); transform-origin: 315.82px 253.205px;" id="elolepofodcar" class="animable"></path><path d="M305.25,284.84q4-19.86,8-39.74c.38-1.89,3.27-1.09,2.89.8l-7.62,37.84H325a1.5,1.5,0,0,1,0,3H306.69A1.52,1.52,0,0,1,305.25,284.84Z" style="fill: rgb(224, 224, 224); transform-origin: 315.851px 265.38px;" id="el2u2mgsq07aq" class="animable"></path><path d="M323.92,274.18h0l-5.14-73.48h0a13.64,13.64,0,0,0-5.67,12.05L316.62,263A13.66,13.66,0,0,0,323.92,274.18Z" style="fill: rgb(224, 224, 224); transform-origin: 318.498px 237.44px;" id="el8cu18m4gabs" class="animable"></path><polygon points="245.49 74.85 239.46 74.85 239.46 106.33 245.49 106.31 245.49 74.85" style="fill: rgb(235, 235, 235); transform-origin: 242.475px 90.59px;" id="elrw95j1p3umk" class="animable"></polygon><path d="M227.71,81.38v24.91a3.71,3.71,0,0,0,.67.06h5.36v-25Z" style="fill: rgb(230, 230, 230); transform-origin: 230.725px 93.85px;" id="elbotjv0xigts" class="animable"></path><path d="M263.86,71.58v34.7h5.38a4.48,4.48,0,0,0,.65-.06V71.58Z" style="fill: rgb(240, 240, 240); transform-origin: 266.875px 88.93px;" id="el4jhvxgpzy5b" class="animable"></path><polygon points="257.84 87.8 251.81 87.8 251.81 106.3 257.84 106.29 257.84 87.8" style="fill: rgb(224, 224, 224); transform-origin: 254.825px 97.05px;" id="elwenf1j9byv9" class="animable"></polygon><path d="M71.82,140.63v23.89l8.86,22.19a24.14,24.14,0,0,0-8.86-46.08Z" style="fill: rgb(224, 224, 224); transform-origin: 83.3156px 163.67px;" id="el5ah8ltllb5h" class="animable"></path><path d="M69.73,164.22V140.63A23.41,23.41,0,0,0,47.43,164q0,.44,0,.87c0,.3,0,.59,0,.89a23.39,23.39,0,0,0,31.05,22.12Z" style="fill: rgb(240, 240, 240); transform-origin: 62.955px 164.9px;" id="el4xig1tfksd" class="animable"></path></g><g id="freepik--Shadow--inject-21" class="animable" style="transform-origin: 245.18px 412.39px;"><ellipse id="freepik--path--inject-21" cx="245.18" cy="412.39" rx="193.89" ry="11.32" style="fill: rgb(245, 245, 245); transform-origin: 245.18px 412.39px;" class="animable"></ellipse></g><g id="freepik--Board--inject-21" class="animable" style="transform-origin: 243.4px 263.33px;"><path d="M224.68,407.12,243.4,388.4l18.72,18.72a2.58,2.58,0,0,0,1.82.75h0a2.57,2.57,0,0,0,1.82-4.39L243.4,381.12,221,403.48a2.57,2.57,0,0,0,1.82,4.39h0A2.58,2.58,0,0,0,224.68,407.12Z" style="fill: #40FF56; transform-origin: 243.38px 394.495px;" id="elk7ba1hxvhj" class="animable"></path><g id="el2gt04b4zivw"><polygon points="244.03 381.76 242.77 381.76 237.03 387.49 237.03 394.5 237.3 394.5 243.4 388.4 249.5 394.5 249.77 394.5 249.77 387.49 244.03 381.76" style="opacity: 0.2; transform-origin: 243.4px 388.13px;" class="animable" id="elzuisw5qgnbq"></polygon></g><path d="M239.57,323.37h7.66a0,0,0,0,1,0,0v81.5a3,3,0,0,1-3,3h-1.66a3,3,0,0,1-3-3v-81.5A0,0,0,0,1,239.57,323.37Z" style="fill: #40FF56; transform-origin: 243.4px 365.62px;" id="elaqy8za6trpt" class="animable"></path><g id="elgjvgu5ivqlm"><rect x="239.57" y="323.37" width="7.66" height="30.03" style="opacity: 0.2; transform-origin: 243.4px 338.385px;" class="animable" id="elw33qtm9xp5c"></rect></g><path d="M379.74,342.63H107.06a10.17,10.17,0,0,1-10.15-10.16V120.93h293V332.47A10.17,10.17,0,0,1,379.74,342.63ZM100.34,124.36V332.47a6.73,6.73,0,0,0,6.72,6.73H379.74a6.73,6.73,0,0,0,6.72-6.73V124.36Z" style="fill: #40FF56; transform-origin: 243.41px 231.78px;" id="eluvxxxo9ng0n" class="animable"></path><g id="el3ra5vxqqf2a"><g style="opacity: 0.8; transform-origin: 243.41px 231.78px;" class="animable" id="elam2cxu3mnw"><path d="M379.74,342.63H107.06a10.17,10.17,0,0,1-10.15-10.16V120.93h293V332.47A10.17,10.17,0,0,1,379.74,342.63ZM100.34,124.36V332.47a6.73,6.73,0,0,0,6.72,6.73H379.74a6.73,6.73,0,0,0,6.72-6.73V124.36Z" style="fill: rgb(255, 255, 255); transform-origin: 243.41px 231.78px;" id="elz4irmpxfgnh" class="animable"></path></g></g><path d="M100.34,124.36V332.47a6.73,6.73,0,0,0,6.72,6.73H379.74a6.73,6.73,0,0,0,6.72-6.73V124.36Z" style="fill: rgb(255, 255, 255); transform-origin: 243.4px 231.78px;" id="elqa01o0fqs5" class="animable"></path><rect x="90.29" y="118.79" width="306.22" height="7.72" style="fill: #40FF56; transform-origin: 243.4px 122.65px;" id="eluqdejahao5r" class="animable"></rect><g id="elvic16soqdd"><rect x="90.29" y="118.79" width="306.22" height="3.86" style="fill: rgb(255, 255, 255); opacity: 0.5; transform-origin: 243.4px 120.72px;" class="animable" id="elvpfx50x5vfn"></rect></g><path d="M127.54,302.3s170.65-3.18,223.21-151.9l-1.81,152.24Z" style="fill: #40FF56; transform-origin: 239.145px 226.52px;" id="elcod9ynt4z4n" class="animable"></path><g id="el4kpfh61zab2"><g style="opacity: 0.7; transform-origin: 239.145px 226.52px;" class="animable" id="el2tmwb9dhien"><path d="M127.54,302.3s170.65-3.18,223.21-151.9l-1.81,152.24Z" style="fill: rgb(255, 255, 255); transform-origin: 239.145px 226.52px;" id="elxt6npa2qd6" class="animable"></path></g></g><path d="M128.86,303.16a1,1,0,0,1-.05-2c8.28-.39,51.91-3.38,98.89-23.86,60-26.18,100.92-69,121.52-127.3a1,1,0,0,1,1.88.66c-11.35,32.15-29.17,60-53,82.83-19.38,18.59-42.81,33.94-69.64,45.64-47.3,20.63-91.26,23.64-99.59,24Z" style="fill: #40FF56; transform-origin: 239.485px 226.286px;" id="elwa863o0wdv" class="animable"></path><path d="M137.76,312.52a1,1,0,0,1-1-1v-8.31a1,1,0,0,1,2,0v8.31A1,1,0,0,1,137.76,312.52Z" style="fill: #40FF56; transform-origin: 137.76px 307.365px;" id="el0c3i3nfvn12t" class="animable"></path><path d="M172.47,312.56a1,1,0,0,1-1-1v-8.31a1,1,0,0,1,2,0v8.31A1,1,0,0,1,172.47,312.56Z" style="fill: #40FF56; transform-origin: 172.47px 307.405px;" id="elkhwi3t92v4" class="animable"></path><path d="M207.18,312.59a1,1,0,0,1-1-1v-8.31a1,1,0,0,1,2,0v8.31A1,1,0,0,1,207.18,312.59Z" style="fill: #40FF56; transform-origin: 207.18px 307.435px;" id="elqijd415ko" class="animable"></path><path d="M241.89,312.62a1,1,0,0,1-1-1v-8.31a1,1,0,0,1,2,0v8.31A1,1,0,0,1,241.89,312.62Z" style="fill: #40FF56; transform-origin: 241.89px 307.465px;" id="els24pbit839" class="animable"></path><path d="M276.6,312.65a1,1,0,0,1-1-1v-8.3a1,1,0,0,1,2,0v8.3A1,1,0,0,1,276.6,312.65Z" style="fill: #40FF56; transform-origin: 276.6px 307.5px;" id="eltghroq2l1fo" class="animable"></path><path d="M311.3,312.69a1,1,0,0,1-1-1v-8.31a1,1,0,0,1,2,0v8.31A1,1,0,0,1,311.3,312.69Z" style="fill: #40FF56; transform-origin: 311.3px 307.535px;" id="elsw0v05a0r4" class="animable"></path><path d="M346,312.72a1,1,0,0,1-1-1v-8.31a1,1,0,0,1,2,0v8.31A1,1,0,0,1,346,312.72Z" style="fill: #40FF56; transform-origin: 346px 307.565px;" id="eli5icz5y108" class="animable"></path><path d="M128,159.65h-4.48a1,1,0,0,1,0-2H128a1,1,0,0,1,0,2Z" style="fill: #40FF56; transform-origin: 125.76px 158.65px;" id="elvm96ydt1auh" class="animable"></path><path d="M128,181.42h-4.48a1,1,0,0,1,0-2H128a1,1,0,0,1,0,2Z" style="fill: #40FF56; transform-origin: 125.76px 180.42px;" id="elo669bd7r5dm" class="animable"></path><path d="M128,203.2h-4.48a1,1,0,1,1,0-2H128a1,1,0,0,1,0,2Z" style="fill: #40FF56; transform-origin: 125.76px 202.2px;" id="elzs2djlgr7g" class="animable"></path><path d="M128,225h-4.48a1,1,0,0,1,0-2H128a1,1,0,0,1,0,2Z" style="fill: #40FF56; transform-origin: 125.76px 224px;" id="elkjg588i63r" class="animable"></path><path d="M128,246.75h-4.48a1,1,0,0,1,0-2H128a1,1,0,0,1,0,2Z" style="fill: #40FF56; transform-origin: 125.76px 245.75px;" id="eloo27uv1x95" class="animable"></path><path d="M128,268.53h-4.48a1,1,0,0,1,0-2H128a1,1,0,0,1,0,2Z" style="fill: #40FF56; transform-origin: 125.76px 267.53px;" id="elh25ye9lt47h" class="animable"></path><path d="M128,290.3h-4.48a1,1,0,1,1,0-2H128a1,1,0,0,1,0,2Z" style="fill: #40FF56; transform-origin: 125.76px 289.3px;" id="el5xdx3yy7cw5" class="animable"></path><path d="M357.4,304.21H128.86a1,1,0,0,1-1-1V150.05a1,1,0,0,1,2,0V302.21H357.4a1,1,0,0,1,0,2Z" style="fill: #40FF56; transform-origin: 243.13px 226.63px;" id="eluw8ni07cfef" class="animable"></path><path d="M190,153.91v2.55l-8,17.95H178l7.7-17.28h-8.06v3.49h-3.54v-6.71Z" style="fill: #40FF56; transform-origin: 182.05px 164.16px;" id="elrvlq8m6qer" class="animable"></path><path d="M191.8,164.16c0-6.74,3.69-10.55,8.56-10.55s8.58,3.81,8.58,10.55-3.69,10.54-8.58,10.54S191.8,170.9,191.8,164.16Zm13.3,0c0-4.95-1.93-7.24-4.74-7.24s-4.72,2.29-4.72,7.24,1.93,7.23,4.72,7.23S205.1,169.11,205.1,164.16Z" style="fill: #40FF56; transform-origin: 200.37px 164.155px;" id="el804bdrdv0fo" class="animable"></path><path d="M211.2,159.33c0-3.37,2-5.63,4.89-5.63s4.92,2.23,4.92,5.63-2,5.62-4.92,5.62S211.2,162.7,211.2,159.33Zm7.41,0c0-2.29-.94-3.58-2.52-3.58s-2.52,1.32-2.52,3.58,1,3.57,2.52,3.57S218.61,161.61,218.61,159.33Zm9.78-5.42h2.87l-14,20.5h-2.87ZM224.64,169c0-3.37,2-5.62,4.89-5.62s4.92,2.25,4.92,5.62-2,5.63-4.92,5.63S224.64,172.36,224.64,169Zm7.41,0c0-2.25-1-3.57-2.52-3.57S227,166.71,227,169s1,3.58,2.52,3.58S232.05,171.25,232.05,169Z" style="fill: #40FF56; transform-origin: 222.825px 164.165px;" id="elfhnafwbqs9e" class="animable"></path><rect x="181.97" y="179.91" width="46.26" height="3.22" style="fill: #40FF56; transform-origin: 205.1px 181.52px;" id="elvq6838dlv8q" class="animable"></rect><rect x="174.22" y="187.66" width="54.01" height="3.22" style="fill: #40FF56; transform-origin: 201.225px 189.27px;" id="el0m5uwl36z5" class="animable"></rect><rect x="174.22" y="195.21" width="54.01" height="3.22" style="fill: #40FF56; transform-origin: 201.225px 196.82px;" id="el1tq1ngxkosj" class="animable"></rect><rect x="174.22" y="202.76" width="42.08" height="3.22" style="fill: #40FF56; transform-origin: 195.26px 204.37px;" id="el5nu9l2qdbpx" class="animable"></rect></g><g id="freepik--Plant--inject-21" class="animable" style="transform-origin: 400.789px 360.031px;"><path d="M397.31,322.93s7.28,15.68,7.73,49.4l4.95,0s-4.1-50.82-13.52-54.46C391.44,316,397.31,322.93,397.31,322.93Z" style="fill: #40FF56; transform-origin: 402.212px 344.94px;" id="elg5rvgolhwh" class="animable"></path><g id="elaawbd7w8xwn"><g style="opacity: 0.1; transform-origin: 402.212px 344.94px;" class="animable" id="el8rsu69ib6u"><path d="M397.31,322.93s7.28,15.68,7.73,49.4l4.95,0s-4.1-50.82-13.52-54.46C391.44,316,397.31,322.93,397.31,322.93Z" id="el0yja4o2snp" class="animable" style="transform-origin: 402.212px 344.94px;"></path></g></g><path d="M394.41,317.9c1-3,1.51-2.95,3.3-4.92-2.66-.44-5.89-1.79-10.24-.06-3.82,1.8-5.25,6-4.51,10.1a1.05,1.05,0,0,1-.2.86v0a1.07,1.07,0,0,1-1.73-.09,9.5,9.5,0,0,1-.47-9.1c-3.41,1.08-7.34,2.86-9.44,5.76-2.3,3.17-1.53,10.64,1.16,13.76a.74.74,0,0,1,0,.95l0,0a.74.74,0,0,1-1.1.1,11.67,11.67,0,0,1-3.25-3.92c-.82-1.78-1.19-3.88-.14-5.53-4.34.66-8,9.84-7.56,9.74.61,3.25,3.54,6.21,5,7.52a1.46,1.46,0,0,1,.28,1.83l0,0a1.47,1.47,0,0,1-2.19.39c-1.56-1.27-3.92-3.43-4.58-5.27-1.44,1-1.39,3.45-1.36,5.21.08,5.62,4.31,9.69,7.64,13.81a24.68,24.68,0,0,0,13.48,1,13,13,0,0,0,7.94-5.59l0-.07c-3.06-.67-6.44-1.54-9.56-2.25a1.18,1.18,0,0,1-.92-1.31v0a1.19,1.19,0,0,1,1.31-1c4.11.49,7.3,1.42,11.52,1.86,2.28-2,5.94-9.46,5.27-9.26-3.61-.22-9.74.2-13.15-1.3a1,1,0,0,1-.47-1.32h0a1,1,0,0,1,1-.5,40.44,40.44,0,0,0,14,.3c2.75-3.73,4.73-6.61,5.05-9.39l-10.89-1a.93.93,0,0,1-.07-1.85h.06c4.44-.52,9.65,1.07,13.21-1.46,0,0,4.71-4.57,3.13-7.24C402.22,320.71,394,319.25,394.41,317.9Z" style="fill: #40FF56; transform-origin: 381.812px 336.305px;" id="el34nxcsemkuy" class="animable"></path><path d="M412.85,324.34a69.38,69.38,0,0,0-7.19,18.55c-5,22.51-4.87,29.15-4.87,29.15l-4.18.14s8.14-43.1,14.85-49.16S412.85,324.34,412.85,324.34Z" style="fill: #40FF56; transform-origin: 405.73px 346.405px;" id="elly9d1zs4sqb" class="animable"></path><g id="el1kr7v2jkzzy"><path d="M412.85,324.34a69.38,69.38,0,0,0-7.19,18.55c-5,22.51-4.87,29.15-4.87,29.15l-4.18.14s8.14-43.1,14.85-49.16S412.85,324.34,412.85,324.34Z" style="opacity: 0.4; transform-origin: 405.73px 346.405px;" class="animable" id="elclb4peca999"></path></g><path d="M414.41,319.63c-1.51-1.19-1.76-1-3.36-1.47,1.3-1,2.62-2.58,5.53-3a5.61,5.61,0,0,1,5.66,3.67.66.66,0,0,0,.39.36h0a.66.66,0,0,0,.9-.54,5.28,5.28,0,0,0-2.64-4.61c2.19-.45,4.89-.71,7,.1,2.26.9,4.22,4.79,3.76,7.11a.41.41,0,0,0,.28.47h0a.49.49,0,0,0,.63-.27,6.06,6.06,0,0,0,.52-2.87,3.27,3.27,0,0,0-1.69-2.76c2.56-.92,7.48,2.53,7.2,2.61.71,1.78.06,4.08-.32,5.14a.8.8,0,0,0,.44,1h0a.94.94,0,0,0,1.3-.44,8.17,8.17,0,0,0,.81-3.91c1.1.08,1.85,1.29,2.4,2.16,1.74,2.79.75,6,.26,9a15.67,15.67,0,0,1-7,4.37,9,9,0,0,1-6.09-.46l0,0c1.44-1.21,3-2.62,4.47-3.87a.63.63,0,0,0,.07-.91h0a.8.8,0,0,0-1-.12c-2.07,1.43-3.5,2.81-5.65,4.24-1.89-.33-6.24-2.93-5.81-3,1.89-1.15,5.34-2.71,6.72-4.44a.52.52,0,0,0-.17-.78h0a.63.63,0,0,0-.71.05,26.26,26.26,0,0,1-7.5,4.2c-2.68-1-4.67-1.89-5.73-3.16l5.57-3.66a.54.54,0,0,0-.55-.93h0c-2.58,1-4.9,3.32-7.63,3.1,0,0-4-.88-4-2.65C411.07,323.27,415.08,320.16,414.41,319.63Z" style="fill: #40FF56; transform-origin: 426.339px 324.847px;" id="el13z5y52ktvjm" class="animable"></path><g id="elg6a0fkairt"><path d="M414.41,319.63c-1.51-1.19-1.76-1-3.36-1.47,1.3-1,2.62-2.58,5.53-3a5.61,5.61,0,0,1,5.66,3.67.66.66,0,0,0,.39.36h0a.66.66,0,0,0,.9-.54,5.28,5.28,0,0,0-2.64-4.61c2.19-.45,4.89-.71,7,.1,2.26.9,4.22,4.79,3.76,7.11a.41.41,0,0,0,.28.47h0a.49.49,0,0,0,.63-.27,6.06,6.06,0,0,0,.52-2.87,3.27,3.27,0,0,0-1.69-2.76c2.56-.92,7.48,2.53,7.2,2.61.71,1.78.06,4.08-.32,5.14a.8.8,0,0,0,.44,1h0a.94.94,0,0,0,1.3-.44,8.17,8.17,0,0,0,.81-3.91c1.1.08,1.85,1.29,2.4,2.16,1.74,2.79.75,6,.26,9a15.67,15.67,0,0,1-7,4.37,9,9,0,0,1-6.09-.46l0,0c1.44-1.21,3-2.62,4.47-3.87a.63.63,0,0,0,.07-.91h0a.8.8,0,0,0-1-.12c-2.07,1.43-3.5,2.81-5.65,4.24-1.89-.33-6.24-2.93-5.81-3,1.89-1.15,5.34-2.71,6.72-4.44a.52.52,0,0,0-.17-.78h0a.63.63,0,0,0-.71.05,26.26,26.26,0,0,1-7.5,4.2c-2.68-1-4.67-1.89-5.73-3.16l5.57-3.66a.54.54,0,0,0-.55-.93h0c-2.58,1-4.9,3.32-7.63,3.1,0,0-4-.88-4-2.65C411.07,323.27,415.08,320.16,414.41,319.63Z" style="fill: rgb(255, 255, 255); opacity: 0.2; transform-origin: 426.339px 324.847px;" class="animable" id="elu1yua5z3mxq"></path></g><path d="M409.26,331.92S401.1,343.81,398.9,355,396.52,371,396.52,371l-4.95.05s8.76-34,16.29-40.72S409.26,331.92,409.26,331.92Z" style="fill: #40FF56; transform-origin: 401.591px 349.378px;" id="elmw8ylfm9b" class="animable"></path><g id="elzt91rt2ve8b"><path d="M409.26,331.92S401.1,343.81,398.9,355,396.52,371,396.52,371l-4.95.05s8.76-34,16.29-40.72S409.26,331.92,409.26,331.92Z" style="opacity: 0.2; transform-origin: 401.591px 349.378px;" class="animable" id="elo3cv2krxk6e"></path></g><path d="M409.58,330.87c-.5-2.58-.92-2.58-2.17-4.39,2.22-.07,5-.83,8.39,1.06,2.93,1.89,3.65,5.46,2.59,8.76a.89.89,0,0,0,.08.73h0a.88.88,0,0,0,1.42.11,7.83,7.83,0,0,0,1.37-7.39c2.67,1.26,5.7,3.13,7.1,5.73,1.54,2.85.1,8.88-2.44,11.14a.61.61,0,0,0-.13.77v0a.62.62,0,0,0,.88.21,9.63,9.63,0,0,0,3.09-2.86,4.81,4.81,0,0,0,.72-4.51c3.47,1,5.49,8.92,5.13,8.79-.86,2.59-3.57,4.7-4.92,5.61a1.2,1.2,0,0,0-.42,1.47v0a1.21,1.21,0,0,0,1.75.55c1.41-.87,3.58-2.38,4.32-3.82,1.07,1,.76,3,.55,4.41-.68,4.59-4.58,7.47-7.75,10.48a20.29,20.29,0,0,1-11.14-.67,10.7,10.7,0,0,1-5.89-5.43l0-.07c2.58-.22,5.44-.55,8.07-.8a1,1,0,0,0,.89-1v0a1,1,0,0,0-1-1c-3.42-.05-6.13.37-9.63.27-1.65-1.91-3.84-8.39-3.32-8.16,3,.22,8,1.23,10.91.37a.8.8,0,0,0,.53-1h0a.78.78,0,0,0-.78-.52,33.62,33.62,0,0,1-11.5-1.27c-1.85-3.35-3.16-5.92-3.12-8.24l9,.33a.77.77,0,0,0,.25-1.5h0c-3.58-.92-8-.17-10.65-2.64,0,0-3.37-4.24-1.78-6.26C402.88,332.32,409.81,332,409.58,330.87Z" style="fill: #40FF56; transform-origin: 418.327px 347.237px;" id="elk0sfrh70j9r" class="animable"></path><g id="elpnlv7v42eb"><path d="M409.58,330.87c-.5-2.58-.92-2.58-2.17-4.39,2.22-.07,5-.83,8.39,1.06,2.93,1.89,3.65,5.46,2.59,8.76a.89.89,0,0,0,.08.73h0a.88.88,0,0,0,1.42.11,7.83,7.83,0,0,0,1.37-7.39c2.67,1.26,5.7,3.13,7.1,5.73,1.54,2.85.1,8.88-2.44,11.14a.61.61,0,0,0-.13.77v0a.62.62,0,0,0,.88.21,9.63,9.63,0,0,0,3.09-2.86,4.81,4.81,0,0,0,.72-4.51c3.47,1,5.49,8.92,5.13,8.79-.86,2.59-3.57,4.7-4.92,5.61a1.2,1.2,0,0,0-.42,1.47v0a1.21,1.21,0,0,0,1.75.55c1.41-.87,3.58-2.38,4.32-3.82,1.07,1,.76,3,.55,4.41-.68,4.59-4.58,7.47-7.75,10.48a20.29,20.29,0,0,1-11.14-.67,10.7,10.7,0,0,1-5.89-5.43l0-.07c2.58-.22,5.44-.55,8.07-.8a1,1,0,0,0,.89-1v0a1,1,0,0,0-1-1c-3.42-.05-6.13.37-9.63.27-1.65-1.91-3.84-8.39-3.32-8.16,3,.22,8,1.23,10.91.37a.8.8,0,0,0,.53-1h0a.78.78,0,0,0-.78-.52,33.62,33.62,0,0,1-11.5-1.27c-1.85-3.35-3.16-5.92-3.12-8.24l9,.33a.77.77,0,0,0,.25-1.5h0c-3.58-.92-8-.17-10.65-2.64,0,0-3.37-4.24-1.78-6.26C402.88,332.32,409.81,332,409.58,330.87Z" style="opacity: 0.1; transform-origin: 418.327px 347.237px;" class="animable" id="elkwdlr6v8rw"></path></g><path d="M393.16,408h17.16A13,13,0,0,0,423,397.84l6.47-28.93H374l6.47,28.93A13,13,0,0,0,393.16,408Z" style="fill: #40FF56; transform-origin: 401.735px 388.455px;" id="eloccupn9ntfc" class="animable"></path><g id="elo6tin8lnqjb"><g style="opacity: 0.3; isolation: isolate; transform-origin: 401.735px 388.455px;" class="animable" id="elso9h2ulddn"><path d="M393.16,408h17.16A13,13,0,0,0,423,397.84l6.47-28.93H374l6.47,28.93A13,13,0,0,0,393.16,408Z" id="el5cwqet7t375" class="animable" style="transform-origin: 401.735px 388.455px;"></path></g></g><g id="el11zz1zl5mraf"><path d="M394.41,317.9c1-3,1.51-2.95,3.3-4.92-2.66-.44-5.89-1.79-10.24-.06-3.82,1.8-5.25,6-4.51,10.1a1.05,1.05,0,0,1-.2.86v0a1.07,1.07,0,0,1-1.73-.09,9.5,9.5,0,0,1-.47-9.1c-3.41,1.08-7.34,2.86-9.44,5.76-2.3,3.17-1.53,10.64,1.16,13.76a.74.74,0,0,1,0,.95l0,0a.74.74,0,0,1-1.1.1,11.67,11.67,0,0,1-3.25-3.92c-.82-1.78-1.19-3.88-.14-5.53-4.34.66-8,9.84-7.56,9.74.61,3.25,3.54,6.21,5,7.52a1.46,1.46,0,0,1,.28,1.83l0,0a1.47,1.47,0,0,1-2.19.39c-1.56-1.27-3.92-3.43-4.58-5.27-1.44,1-1.39,3.45-1.36,5.21.08,5.62,4.31,9.69,7.64,13.81a24.68,24.68,0,0,0,13.48,1,13,13,0,0,0,7.94-5.59l0-.07c-3.06-.67-6.44-1.54-9.56-2.25a1.18,1.18,0,0,1-.92-1.31v0a1.19,1.19,0,0,1,1.31-1c4.11.49,7.3,1.42,11.52,1.86,2.28-2,5.94-9.46,5.27-9.26-3.61-.22-9.74.2-13.15-1.3a1,1,0,0,1-.47-1.32h0a1,1,0,0,1,1-.5,40.44,40.44,0,0,0,14,.3c2.75-3.73,4.73-6.61,5.05-9.39l-10.89-1a.93.93,0,0,1-.07-1.85h.06c4.44-.52,9.65,1.07,13.21-1.46,0,0,4.71-4.57,3.13-7.24C402.22,320.71,394,319.25,394.41,317.9Z" style="fill: rgb(255, 255, 255); opacity: 0.1; transform-origin: 381.812px 336.305px;" class="animable" id="elszw4lmjhz4q"></path></g></g><g id="freepik--character-2--inject-21" class="animable" style="transform-origin: 368.59px 296.302px;"><g id="freepik--Character--inject-166--inject-21" class="animable" style="transform-origin: 368.59px 310.935px;"><path d="M364.16,228.55c-.51.38-.88.66-1.33,1s-.85.59-1.28.88c-.86.57-1.74,1.1-2.63,1.63a55.17,55.17,0,0,1-5.57,2.86,39.62,39.62,0,0,1-6.17,2.17,26.82,26.82,0,0,1-3.44.68c-.59.07-1.21.1-1.84.15l-1,0h-.62l-.66-.05a12.22,12.22,0,0,1-4.37-1.39,18.59,18.59,0,0,1-3.11-2.09,31.39,31.39,0,0,1-4.56-4.73,50.79,50.79,0,0,1-6.29-10.47l4.61-2.87a97.88,97.88,0,0,0,7.65,7.73,27.78,27.78,0,0,0,3.94,3,9.56,9.56,0,0,0,1.79.87,2.72,2.72,0,0,0,1.13.19l0,0,.1,0,.47-.07c.33-.06.66-.12,1-.22.69-.17,1.41-.39,2.14-.64a41.53,41.53,0,0,0,4.53-2c1.52-.79,3.05-1.63,4.55-2.55.73-.42,1.49-.93,2.24-1.4l1.1-.72,3-2Z" style="fill: #40FF56; transform-origin: 342.725px 227.12px;" id="elnecjzorfpen" class="animable"></path><g id="elet8stcpzysd"><path d="M364.16,228.55c-.51.38-.88.66-1.33,1s-.85.59-1.28.88c-.86.57-1.74,1.1-2.63,1.63a55.17,55.17,0,0,1-5.57,2.86,39.62,39.62,0,0,1-6.17,2.17,26.82,26.82,0,0,1-3.44.68c-.59.07-1.21.1-1.84.15l-1,0h-.62l-.66-.05a12.22,12.22,0,0,1-4.37-1.39,18.59,18.59,0,0,1-3.11-2.09,31.39,31.39,0,0,1-4.56-4.73,50.79,50.79,0,0,1-6.29-10.47l4.61-2.87a97.88,97.88,0,0,0,7.65,7.73,27.78,27.78,0,0,0,3.94,3,9.56,9.56,0,0,0,1.79.87,2.72,2.72,0,0,0,1.13.19l0,0,.1,0,.47-.07c.33-.06.66-.12,1-.22.69-.17,1.41-.39,2.14-.64a41.53,41.53,0,0,0,4.53-2c1.52-.79,3.05-1.63,4.55-2.55.73-.42,1.49-.93,2.24-1.4l1.1-.72,3-2Z" style="opacity: 0.2; transform-origin: 342.725px 227.12px;" class="animable" id="elruh33jrrytn"></path></g><path d="M323.38,219.58l-4.32-2.07,3.48-5.37s3.65,3,4,6.07Z" style="fill: rgb(255, 139, 123); transform-origin: 322.8px 215.86px;" id="elk4tgjcpz1h" class="animable"></path><polygon points="314.38 214.02 317.3 210.7 322.55 212.15 319.06 217.51 314.38 214.02" style="fill: rgb(255, 139, 123); transform-origin: 318.465px 214.105px;" id="elw9iumuayh2l" class="animable"></polygon><path d="M405.62,410.08a10.34,10.34,0,0,1,1.92-3h0s3.25-5.59.74-15.3l4.47-3.93a4.72,4.72,0,0,1,3.26,1.34,16.75,16.75,0,0,1,1.56,2c1.64,2.81,5.23,9.26,5.23,9.26l-.67.37a58.51,58.51,0,0,0-3.86-5.51c-1.47-1.65-1.44,1.29-.9,3.78s-1.06,6.43-5.32,9C407.12,411.17,404.93,412.14,405.62,410.08Z" style="fill: rgb(38, 50, 56); transform-origin: 414.148px 399.51px;" id="eloru26vt7d4q" class="animable"></path><path d="M413.81,396.78c0,1.65,1.11,4.56-.36,6.73a8,8,0,0,1-5.91,3.59s2.54-4.35,1.4-12.05a32.91,32.91,0,0,0-.66-3.25s3.88-2.87,5.66-3.27l.94,2.56a23.84,23.84,0,0,1-1,5A1.8,1.8,0,0,0,413.81,396.78Z" style="fill: rgb(255, 139, 123); transform-origin: 411.21px 397.815px;" id="elrhyr6f5lw7" class="animable"></path><path d="M414.88,391.09a23.84,23.84,0,0,1-1,5,1.8,1.8,0,0,0-.1.69l-3.66,1.55-1.21-3.28-4.3-11.69,6.41-2.72,2.89,7.89Z" style="fill: rgb(255, 139, 123); transform-origin: 409.745px 389.485px;" id="el2k1z19sgoku" class="animable"></path><g id="eln3rziw4r53"><path d="M411.05,380.65l-6.41,2.71,2.19,5.94h.08a8.29,8.29,0,0,0,6.38-2.55h0Z" style="opacity: 0.2; isolation: isolate; transform-origin: 408.965px 384.98px;" class="animable" id="eln6coqccp8ab"></path></g><path d="M356.8,406.42A10.73,10.73,0,0,1,360,405h0s5.75-2.95,8.86-12.49l6-1.21a4.29,4.29,0,0,1,2.21,2.58,23.48,23.48,0,0,1-.06,3.14c-.1,3.27-.64,11.74-.64,11.74l-.77,0a75.18,75.18,0,0,0-.24-7.8c-.35-2.18-1.91.3-2.8,2.7s-4.35,4.83-9.34,4.72C357.43,408.13,355.08,407.76,356.8,406.42Z" style="fill: rgb(38, 50, 56); transform-origin: 366.673px 400.03px;" id="elsdn5v4yau8j" class="animable"></path><path d="M373.93,396a11.66,11.66,0,0,1-2.59,3.1c-1.2.91-1.6,4.8-4.4,6A8.08,8.08,0,0,1,360,405s4.33-2.22,7.52-9.06a8.26,8.26,0,0,0,.6-5.07L366,379.76l7.28-.95,1.84,13.26A5.5,5.5,0,0,1,373.93,396Z" style="fill: rgb(255, 139, 123); transform-origin: 367.571px 392.322px;" id="el7jws4mcctwp" class="animable"></path><g id="eltnqo6lvs7ld"><path d="M365.38,375.55l1.68,9.76.63.15a7.77,7.77,0,0,0,6.3-1.3h0l-1.24-9.45Z" style="opacity: 0.2; isolation: isolate; transform-origin: 369.685px 380.181px;" class="animable" id="elyvcpwh6x6ud"></path></g><path d="M389.66,223.3a7.54,7.54,0,0,0-.06-.83,9.06,9.06,0,0,0-10.05-8h-.16c-.61.07-1.24.16-1.86.25A90,90,0,0,0,365,217.28c-.7.19-1.42.42-2.12.65-.95.32-1.9.65-2.8,1a9.09,9.09,0,0,0-5.75,10.45,83.16,83.16,0,0,0,7.5,22.47c1.18,2.34,1.36,7.08,2.36,10l27.56-5.58,0,.05C390.45,247.64,389.89,232.91,389.66,223.3Z" style="fill: rgb(38, 50, 56); transform-origin: 372.938px 238.13px;" id="el786b9rvrmb3" class="animable"></path><path d="M364.21,261.79s-1.53,35.2-2.9,62.22c-1.08,21.49,3.11,58.2,3.11,58.2a15,15,0,0,0,11.23-1.56c.16,1.73,1.66-33.8,0-54.26,7.74-29.93,19.09-58.22,10.71-69.24Z" style="fill: rgb(38, 50, 56); transform-origin: 375.221px 319.912px;" id="elp3iirats5n" class="animable"></path><g id="eld8f4uhui7rr"><path d="M377.32,282.45,388.69,276c-1.54,10.67-5.71,24.08-9.76,38.39C375.77,303,374.3,291.13,377.32,282.45Z" style="opacity: 0.3; isolation: isolate; transform-origin: 382.179px 295.195px;" class="animable" id="elxffvgalbyfi"></path></g><path d="M369.15,262.65s7.54,27.27,12.4,53.4c2.11,18.78,22.32,70.12,22.32,70.12l3.48-.66a9.08,9.08,0,0,0,4.42-2.23l1.17-1.07s-6-37.21-11.79-51.7c.14-30.28.7-62.91-10.68-73.07Z" style="fill: rgb(38, 50, 56); transform-origin: 391.045px 321.805px;" id="el41yilpbybh3" class="animable"></path><path d="M378.13,214.51s-2.89,32.23,4.42,74.11c12-.72,19.41-4.05,19.41-4.05s-2.46-22.71-9.86-34.29c-1.27-8.12-.13-25.44-.89-31.76a5.06,5.06,0,0,0-4.34-4.39A38,38,0,0,0,378.13,214.51Z" style="fill: #40FF56; transform-origin: 389.763px 251.326px;" id="elgffvyvnfwl" class="animable"></path><g id="el0jwrl5hyaqfd"><path d="M378.13,214.51s-2.89,32.23,4.42,74.11c12-.72,19.41-4.05,19.41-4.05s-2.46-22.71-9.86-34.29c-1.27-8.12-.13-25.44-.89-31.76a5.06,5.06,0,0,0-4.34-4.39A38,38,0,0,0,378.13,214.51Z" style="opacity: 0.1; transform-origin: 389.763px 251.326px;" class="animable" id="elhvkoermoz4n"></path></g><path d="M364.89,216.84s-1.57,15.27,8.25,72.57c-3.89,2.06-12.2,1.35-12.2,1.35s.14-19.08,1.44-34.32c.63-7.41-4.74-8.51-7.77-16.7-1.49-9.48-.59-17.19.75-18.28C357.53,219.71,361.09,217.32,364.89,216.84Z" style="fill: #40FF56; transform-origin: 363.489px 253.859px;" id="elorm5966ws3q" class="animable"></path><g id="elmntvxq7c69"><path d="M364.89,216.84s-1.57,15.27,8.25,72.57c-3.89,2.06-12.2,1.35-12.2,1.35s.14-19.08,1.44-34.32c.63-7.41-4.74-8.51-7.77-16.7-1.49-9.48-.59-17.19.75-18.28C357.53,219.71,361.09,217.32,364.89,216.84Z" style="opacity: 0.1; transform-origin: 363.489px 253.859px;" class="animable" id="elach5mpd2j8g"></path></g><g id="elbyzjftjx05w"><path d="M378,214.42s-.56,13.19-.36,22.84c1-6.83,3.42-13.36,3.35-15.52a16,16,0,0,1-2-1.26,13.16,13.16,0,0,1,2.5-1.61,41,41,0,0,0,.07-4.86C379.63,214.18,378,214.42,378,214.42Z" style="fill: rgb(255, 255, 255); opacity: 0.7; isolation: isolate; transform-origin: 379.599px 225.635px;" class="animable" id="el43s7942soju"></path></g><g id="elk5txgq9cvhl"><path d="M365,216.72a164.27,164.27,0,0,0,1,22.85c-2.13-6.09-4.88-11.91-4.63-14.2,1.11-.93,2.09-2,2.09-2a7.18,7.18,0,0,0-2.3-.93,43.43,43.43,0,0,1,.39-5.09C363.44,217,365,216.72,365,216.72Z" style="fill: rgb(255, 255, 255); opacity: 0.7; isolation: isolate; transform-origin: 363.58px 228.145px;" class="animable" id="elhr4ro634i2"></path></g><path d="M388,219.12a7.11,7.11,0,0,0,2.41,9.53l.06,0c2,1.23,3.9,2.47,5.76,3.74s3.68,2.59,5.33,3.9a28.28,28.28,0,0,1,2.22,2,11.37,11.37,0,0,1,.8.86c.21.24.31.42.28.3l-.26-1.37a4.11,4.11,0,0,1-.51,2.5,19.79,19.79,0,0,1-2.28,3.7,43.4,43.4,0,0,1-3.15,3.75c-1.11,1.24-2.36,2.48-3.5,3.63l2.95,4.55a39.19,39.19,0,0,0,5-2.77,37.85,37.85,0,0,0,4.65-3.52,24.75,24.75,0,0,0,4.22-4.74,16.13,16.13,0,0,0,1.84-3.75,11.67,11.67,0,0,0,.6-3.94v-.55l-.24-.71a12.08,12.08,0,0,0-1.18-2.49,19.23,19.23,0,0,0-1.7-2.3,33.07,33.07,0,0,0-2.92-3,67.49,67.49,0,0,0-5.93-4.86c-2-1.49-4.05-2.88-6.11-4.21s-4.12-2.59-6.34-3.81Z" style="fill: #40FF56; transform-origin: 400.749px 235.885px;" id="elpzr83jqjqi" class="animable"></path><path d="M398.61,251.79a9.6,9.6,0,0,0-6.68.18l2.52,7.63,3.93-3.41Z" style="fill: rgb(255, 139, 123); transform-origin: 395.27px 255.438px;" id="elppxg5osvpa" class="animable"></path><polygon points="394.45 259.6 391.93 251.97 388.06 256.24 391.32 261.51 394.45 259.6" style="fill: rgb(255, 139, 123); transform-origin: 391.255px 256.74px;" id="el5qv2eomh0iq" class="animable"></polygon></g><path d="M361.27,213.75a46.74,46.74,0,0,1,3.81-27.7c4.76-10,24.63-3,21.63,13.78-1.77,9.89-6,8.21,1.47,14.82,4.31,3.8-8.4,4.79-9.45,2.25,0,0-4.54.43-7.69-2.12C371,214.78,362.07,218.93,361.27,213.75Z" style="fill: rgb(38, 50, 56); transform-origin: 374.844px 199.871px;" id="elj87x96z1zc" class="animable"></path><path d="M369,223.71c4.33.7,7.11-4.84,8.2-7.58l-.49,0c-1.24-3.45-.36-9.06.45-12.38l-8,6.29c.49,2.56.57,5.22-1.8,6.64-.48.08-1,.18-1.43.28C365.4,219.5,365.35,223.13,369,223.71Z" style="fill: rgb(255, 139, 123); transform-origin: 371.434px 213.76px;" id="elb4z13mibxjk" class="animable"></path><g id="elf5ytl99y77"><path d="M373.72,206.33,369,210.05a14.43,14.43,0,0,1,.3,2.26c1.74-.18,4.41-1.62,4.67-3.43A7.32,7.32,0,0,0,373.72,206.33Z" style="opacity: 0.2; isolation: isolate; transform-origin: 371.496px 209.32px;" class="animable" id="elcd2o7vstx5u"></path></g><path d="M381.41,197.85c-2.55,6.3-3.49,9-7.84,11.24-6.55,3.34-13.74-1.16-13.13-8.1.55-6.25,4.62-15.51,11.77-16a9.28,9.28,0,0,1,9.2,12.83Z" style="fill: rgb(255, 139, 123); transform-origin: 371.264px 197.592px;" id="eltiezr7mnaf" class="animable"></path><path d="M366.4,195.83a14.53,14.53,0,0,1-3,2.72,2.34,2.34,0,0,0,1.74,1Z" style="fill: rgb(216, 91, 91); transform-origin: 364.9px 197.69px;" id="elfqxoh0y9rpl" class="animable"></path><path d="M373,194.91a.22.22,0,0,0,.14,0,.26.26,0,0,0,.14-.35h0a3.17,3.17,0,0,0-2.22-1.88.27.27,0,0,0-.09.54,2.64,2.64,0,0,1,1.82,1.57A.27.27,0,0,0,373,194.91Z" style="fill: rgb(38, 50, 56); transform-origin: 372.023px 193.799px;" id="el394l5240ox1" class="animable"></path><path d="M363.17,191a.32.32,0,0,0,.14,0,2.65,2.65,0,0,1,2.39.15.27.27,0,0,0,.38-.06h0a.28.28,0,0,0-.07-.38,3.19,3.19,0,0,0-2.91-.21.26.26,0,0,0-.16.34.28.28,0,0,0,.23.18Z" style="fill: rgb(38, 50, 56); transform-origin: 364.524px 190.724px;" id="elhrag2nlnn8k" class="animable"></path><path d="M370.39,196.2c-.17.52-.59.85-.94.74s-.48-.63-.29-1.16.59-.85.93-.74S370.57,195.67,370.39,196.2Z" style="fill: rgb(38, 50, 56); transform-origin: 369.771px 195.99px;" id="elkop4qppdjv" class="animable"></path><path d="M364.47,194.22c-.18.52-.6.85-.94.74s-.48-.63-.3-1.15.59-.86.93-.74S364.65,193.69,364.47,194.22Z" style="fill: rgb(38, 50, 56); transform-origin: 363.849px 194.014px;" id="el9sdx84c37v5" class="animable"></path><path d="M364.3,193.14l-1.13-.78S363.49,193.56,364.3,193.14Z" style="fill: rgb(38, 50, 56); transform-origin: 363.735px 192.795px;" id="elrt5k8bdjdj" class="animable"></path><path d="M370.23,195.12l-1.14-.78S369.41,195.54,370.23,195.12Z" style="fill: rgb(38, 50, 56); transform-origin: 369.66px 194.775px;" id="el3cknrj0b7vf" class="animable"></path><path d="M369.05,203.29a6.74,6.74,0,0,0,1-.36.2.2,0,0,0,.1-.25h0a.2.2,0,0,0-.25-.1,5.19,5.19,0,0,1-4.67-.13.19.19,0,0,0-.22.32A5.49,5.49,0,0,0,369.05,203.29Z" style="fill: rgb(38, 50, 56); transform-origin: 367.544px 202.94px;" id="el2yvjdnkbz2l" class="animable"></path><path d="M369.91,187s-2.19,1.81-.89,3.56,5.33,1,6.1,4.35-.69,5.94,1.74,7,4.76-2.26,4.76-2.26,3.83-7.8-.9-12-10.23-5.67-13.52-3.77-5.13,3.27-3.91,4.09,3.12,1.41,3.94.59A5.46,5.46,0,0,1,369.91,187Z" style="fill: rgb(38, 50, 56); transform-origin: 372.998px 192.59px;" id="elmj9errdj6sm" class="animable"></path><path d="M381.23,203.44a5,5,0,0,1-3.2,2c-1.72.28-2.39-1.3-1.76-2.83.57-1.36,2.15-3.17,3.81-2.76a2.25,2.25,0,0,1,1.55,2.77A2.07,2.07,0,0,1,381.23,203.44Z" style="fill: rgb(255, 139, 123); transform-origin: 378.875px 202.632px;" id="elv97tn97gp4" class="animable"></path><path d="M364.9,217.07a3.48,3.48,0,0,1,2-.5s-1.94,6.16,2.48,6.51,7.75-7.21,7.75-7.21a2.11,2.11,0,0,1,1.86.18s-3.5,8.76-9.59,8.51S364.9,217.07,364.9,217.07Z" style="fill: #40FF56; transform-origin: 371.851px 220.149px;" id="elgy0uhrgmvdg" class="animable"></path><g id="elsl38qhhf6n"><path d="M364.9,217.07a3.48,3.48,0,0,1,2-.5s-1.94,6.16,2.48,6.51,7.75-7.21,7.75-7.21a2.11,2.11,0,0,1,1.86.18s-3.5,8.76-9.59,8.51S364.9,217.07,364.9,217.07Z" style="fill: rgb(255, 255, 255); opacity: 0.7; transform-origin: 371.851px 220.149px;" class="animable" id="elpz43e9231jg"></path></g><path d="M377.59,198.11l-4.25-1.65c-.14-1.2-1.66-1.79-2.31-2.05s-2.3-.89-3.2.05l-1.48-.57c0-1.3-1.65-1.94-2.33-2.2s-2.88-1.12-3.58.68a3.11,3.11,0,0,0,5.77,2.25,1.9,1.9,0,0,0,.09-.29l1.27.49a1.69,1.69,0,0,0-.13.27,3.11,3.11,0,0,0,5.77,2.25,1.86,1.86,0,0,0,.12-.43l4.1,1.6a2.58,2.58,0,0,1,1.33,1.15l.37-.21A3.05,3.05,0,0,0,377.59,198.11Zm-15.12-2.42a2.54,2.54,0,0,1-1.64-3.17c.38-1,1.29-1.11,3-.43s2.33,1.39,1.95,2.37A2.54,2.54,0,0,1,362.47,195.69Zm7,2.72a2.53,2.53,0,0,1-1.64-3.16c.39-1,1.29-1.12,3-.44s2.33,1.39,1.95,2.37A2.53,2.53,0,0,1,369.47,198.41Z" style="fill: rgb(38, 50, 56); transform-origin: 369.725px 195.458px;" id="el4ffwlfethnk" class="animable"></path></g><g id="freepik--character-1--inject-21" class="animable" style="transform-origin: 132.606px 286.231px;"><path d="M129,205.24s-8.09.6-12.5,9.87-7.42,26.68,3,27.14,9.48-2.09,9.48-2.09l0-4.64-6.69-2a2.58,2.58,0,0,1-1.69-3.32l3.52-10Z" style="fill: #40FF56; transform-origin: 120.72px 223.773px;" id="eljmmqdlx1sff" class="animable"></path><g id="el4ozmcwo8j0h"><path d="M129,205.24s-8.09.6-12.5,9.87-7.42,26.68,3,27.14,9.48-2.09,9.48-2.09l0-4.64-6.69-2a2.58,2.58,0,0,1-1.69-3.32l3.52-10Z" style="opacity: 0.2; transform-origin: 120.72px 223.773px;" class="animable" id="el8tn6o8km1f9"></path></g><path d="M150.07,181.21c.34-.06.69.3.8.81s-.08,1-.42,1-.69-.29-.8-.8S149.73,181.27,150.07,181.21Z" style="fill: rgb(38, 50, 56); transform-origin: 150.26px 182.112px;" id="elsrqog9zhesa" class="animable"></path><path d="M151.05,188a3.07,3.07,0,0,0,2.37-1,19,19,0,0,1-3.35-3.91Z" style="fill: rgb(236, 131, 126); transform-origin: 151.745px 185.546px;" id="elyfwuu2evif" class="animable"></path><path d="M147.41,179.73a2.45,2.45,0,0,1,2.06-.87h0a.16.16,0,0,0,.1,0,.31.31,0,0,0,.31-.31.3.3,0,0,0-.31-.31,3,3,0,0,0-2.61,1,.32.32,0,0,0-.08.21.33.33,0,0,0,.31.32A.36.36,0,0,0,147.41,179.73Z" style="fill: rgb(38, 50, 56); transform-origin: 148.38px 178.996px;" id="elxp6sir62r5" class="animable"></path><path d="M145.28,197.2c-.94,3.71-1,8.31,3.07,9.57,0,0,5.06,4.24-4.68,4.24-8.84,0-10.15-4.83-10.15-4.83,3.34-3.19,2.77-9.78,1.84-14.55Z" style="fill: rgb(255, 194, 188); transform-origin: 141.592px 201.32px;" id="elbdajc0m6yxf" class="animable"></path><path d="M129.91,205.36s1.6-4.24,3.78-5.5,11.34.62,12.76,1.25,2.72,4,2.72,4Z" style="fill: #40FF56; transform-origin: 139.54px 202.397px;" id="elh94n2qw0wsv" class="animable"></path><g id="elt8m37pz1t1e"><path d="M129.91,205.36s1.6-4.24,3.78-5.5,11.34.62,12.76,1.25,2.72,4,2.72,4Z" style="opacity: 0.2; transform-origin: 139.54px 202.397px;" class="animable" id="el6jlwq6py0fg"></path></g><path d="M143.86,401.94a.15.15,0,0,1-.05-.28c.12-.06,2.4-1.35,3.48-1.06a.8.8,0,0,1,.5.36.59.59,0,0,1,0,.67c-.27.38-1,.5-1.92.5A12.43,12.43,0,0,1,143.86,401.94Zm3-1.09a7,7,0,0,0-2.56.83c1.21.17,2.86.16,3.16-.26.07-.06.1-.15,0-.34a.43.43,0,0,0-.3-.21.76.76,0,0,0-.3,0Z" style="fill: #40FF56; transform-origin: 145.813px 401.344px;" id="ela5gz7utpgls" class="animable"></path><path d="M143.8,401.91a.23.23,0,0,1-.07-.14,4.15,4.15,0,0,1,1-2.51,1.15,1.15,0,0,1,.87-.27c.43.05.58.27.58.44.12.76-1.44,2.14-2.23,2.5h-.06A.22.22,0,0,1,143.8,401.91Zm1.72-2.62a.76.76,0,0,0-.55.23,3.62,3.62,0,0,0-.87,2c.81-.49,1.86-1.6,1.79-2,0,0,0-.17-.3-.17h-.09Z" style="fill: #40FF56; transform-origin: 144.958px 400.457px;" id="elq1euowj2gx8" class="animable"></path><polygon points="137.4 386.69 143.91 386.69 143.26 401.77 136.75 401.77 137.4 386.69" style="fill: rgb(255, 194, 188); transform-origin: 140.33px 394.23px;" id="elh8skc9fmpe7" class="animable"></polygon><path d="M144.79,401.53c4.4,2.71,5.76,2.83,10.85,4,1.12.24.38,2.94-2.29,2.94-4.42,0-4.88-.2-8.65-.2-3.23,0-6.93.14-9.5.19a.85.85,0,0,1-.23,0,.94.94,0,0,1-.7-1.13l1.28-5.78a.58.58,0,0,1,.56-.45h7.11A3,3,0,0,1,144.79,401.53Z" style="fill: rgb(38, 50, 56); transform-origin: 145.195px 404.785px;" id="elwktzzpmw6j" class="animable"></path><path d="M152.7,205.26a190.58,190.58,0,0,0-19.45-.45c-1.7.12-3.39.29-5.07.5a6.28,6.28,0,0,0-5.4,7.27c3.86,23.14,1.92,45.84,1.39,50.4l34.79-.33c3.64-28.64,2.67-43.08,1.27-50.09A9.23,9.23,0,0,0,152.7,205.26Z" style="fill: #40FF56; transform-origin: 142.09px 233.858px;" id="elwyre0js8tj8" class="animable"></path><g id="el8xxe0cr742"><path d="M152.7,205.26a190.58,190.58,0,0,0-19.45-.45c-1.7.12-3.39.29-5.07.5a6.28,6.28,0,0,0-5.4,7.27c3.86,23.14,1.92,45.84,1.39,50.4l34.79-.33c3.64-28.64,2.67-43.08,1.27-50.09A9.23,9.23,0,0,0,152.7,205.26Z" style="opacity: 0.1; transform-origin: 142.09px 233.858px;" class="animable" id="elf2movh3c8c"></path></g><g id="el902l8042d9n"><polygon points="137.39 386.7 137.06 394.47 143.58 394.47 143.91 386.7 137.39 386.7" style="opacity: 0.2; isolation: isolate; transform-origin: 140.485px 390.585px;" class="animable" id="elqrx6se5u6f"></polygon></g><path d="M132.09,180.62a8.83,8.83,0,0,1,10.33-7c6.7,1.26,9.47,10.46,9.27,16.42-.2,6.61-7.45,11.09-13.24,7.19-3.85-2.6-4.52-6.33-6.19-12.57A8.94,8.94,0,0,1,132.09,180.62Z" style="fill: rgb(255, 194, 188); transform-origin: 141.818px 186.073px;" id="el0fshkvm5zgdk" class="animable"></path><path d="M124.68,260.57s-6.67,21.37-11.83,43.12C106.12,332,89.9,390,89.9,390l11.48,2.53s23.68-67.44,29.9-87.77c5.69-18.56,15.87-44.17,15.87-44.17Z" style="fill: rgb(38, 50, 56); transform-origin: 118.525px 326.55px;" id="elwvwqor164yh" class="animable"></path><g id="elpvvl7sknt2i"><path d="M138.54,284.34c-10.24,27.85-12.41,36.21-12.56,36.75,1.24-16.95,6.34-35.86,12.56-36.75C139,284.27,138.12,284.21,138.54,284.34Z" style="opacity: 0.3; isolation: isolate; transform-origin: 132.329px 302.677px;" class="animable" id="el198fw68eybo"></path></g><path d="M136.6,260.57s-.76,23.69-1.24,45.8c-.45,20.29,0,86.6,0,86.6h11s8.47-67.65,10.71-88.28c2.17-19.82,2.4-44.12,2.4-44.12Z" style="fill: rgb(38, 50, 56); transform-origin: 147.315px 326.77px;" id="el9304lqpuqdq" class="animable"></path><path d="M133.73,389.07l.37,4.08h13.41s.67-4.58.62-4.58Z" style="fill: #40FF56; transform-origin: 140.931px 390.86px;" id="elqahlrf9eum" class="animable"></path><path d="M89.58,401.87a.15.15,0,0,1-.28,0c-.06-.11-1.34-2.4-1-3.48a.81.81,0,0,1,.36-.49.6.6,0,0,1,.68,0c.37.28.48,1.05.48,1.92A12.22,12.22,0,0,1,89.58,401.87Zm-1.06-3.05a6.82,6.82,0,0,0,.79,2.56c.18-1.21.18-2.85-.24-3.16,0-.07-.14-.1-.34,0a.43.43,0,0,0-.21.31.71.71,0,0,0,0,.29Z" style="fill: #40FF56; transform-origin: 89.0313px 399.88px;" id="eltd4n2h1gmgp" class="animable"></path><path d="M89.57,401.93a.15.15,0,0,1-.14.06,4.16,4.16,0,0,1-2.5-1,1.15,1.15,0,0,1-.26-.87c0-.42.26-.56.44-.56.74-.12,2.13,1.45,2.48,2.23v.06A.14.14,0,0,1,89.57,401.93ZM87,400.22a.9.9,0,0,0,.22.54,3.63,3.63,0,0,0,2,.87c-.48-.81-1.58-1.87-2-1.8,0,0-.17,0-.17.3v.09Z" style="fill: #40FF56; transform-origin: 88.1263px 400.772px;" id="el1rpx7zateyu" class="animable"></path><polygon points="92.42 389.37 98.77 389.85 95.84 402.32 89.48 401.87 92.42 389.37" style="fill: rgb(255, 194, 188); transform-origin: 94.125px 395.845px;" id="elwy3n77avk0h" class="animable"></polygon><g id="el8q17surn6x6"><polygon points="92.5 389.02 91.21 394.51 97.56 394.96 98.86 389.46 92.5 389.02" style="opacity: 0.2; isolation: isolate; transform-origin: 95.035px 391.99px;" class="animable" id="elnuivjxmkkin"></polygon></g><path d="M88,401c-1.71,2-2.62,3.07-7.59,4.64-1.1.34-.12,3,2.55,2.73,4.4-.39,2-.38,5.72-.72,3.21-.28,6.91-.46,9.47-.64a1.17,1.17,0,0,0,.26,0,1,1,0,0,0,.61-1.19l-1.79-5.66a.56.56,0,0,0-.59-.39l-7.08.63A2.2,2.2,0,0,0,88,401Z" style="fill: rgb(38, 50, 56); transform-origin: 89.5097px 404.078px;" id="elgbrfvgric1j" class="animable"></path><path d="M88.53,387.85,88.46,392l13.81,1.48s1.18-4.48,1.13-4.48Z" style="fill: #40FF56; transform-origin: 95.9308px 390.665px;" id="el5r7h5po8zae" class="animable"></path><path d="M134.24,172.28c3.3-1.27,3.79-1.57,5.72-4.54,1.07-1.66.92-3.11,4.17-3.64A7.55,7.55,0,0,1,149.31,178c-1.7,1.05.82-1.49-1-.72s-1.44-.11-1.55,1.89c-.09,1.53.84,2.91,1.44,4.33s.74,3.33-.51,4.23c.35-1.17-2.5,2-2.39,3.24.3,3.38-2.7,6.48-6.05,6.94-7.38,1-12.23-7.56-14.36-13.45C122,176.62,126.45,175.27,134.24,172.28Z" style="fill: rgb(38, 50, 56); transform-origin: 138.475px 180.992px;" id="el2hb9etalvsx" class="animable"></path><path d="M146.3,181.92c1.85.56,2.79,3.31,2.86,5.05.06,1.92-1.23,3.12-2.89,1.82a7.34,7.34,0,0,1-2.53-3.95C143.31,183,144.45,181.35,146.3,181.92Z" style="fill: rgb(255, 194, 188); transform-origin: 146.406px 185.57px;" id="elf00j7xtmtof" class="animable"></path><g id="elkst4c4zvu"><path d="M152.79,205.79a8.83,8.83,0,0,1,8.8,5.88c1.85,4.7,5.53,15.14,7.41,20.52a1.55,1.55,0,0,0,2.84.21l2.51-4.73s3.71.7,5.1,3.94-7,12.08-11.36,12.06c-4.9,0-11.26-12-13-17.47A52.27,52.27,0,0,1,152.79,205.79Z" style="fill: rgb(255, 255, 255); opacity: 0.1; transform-origin: 166.101px 224.724px;" class="animable" id="elin1zbvi6co"></path></g><path d="M174.35,229.2l2.87-4.87s-1.62-3-.56-5,2.11-.38,3.14-1,3.34-4.85,4.45-2.72,2.49,5.81-3.23,10.16l-3.09,7.76Z" style="fill: rgb(255, 194, 188); transform-origin: 179.798px 224.273px;" id="elhn2deaohu7m" class="animable"></path><path d="M174.78,227.15a7,7,0,0,1,5.29,5l0,.1c.08.45.64,3.78,0,3.84s-1.56-3.13-6.82-5.9a.64.64,0,0,1-.26-.88l1.13-1.86A.61.61,0,0,1,174.78,227.15Z" style="fill: #40FF56; transform-origin: 176.64px 231.614px;" id="el0jrra9yae966" class="animable"></path><path d="M174.78,227.15a7,7,0,0,1,5.29,5l0,.1c.08.45.64,3.78,0,3.84s-1.56-3.13-6.82-5.9a.64.64,0,0,1-.26-.88l1.13-1.86A.61.61,0,0,1,174.78,227.15Z" style="fill: #40FF56; transform-origin: 176.64px 231.614px;" id="elppevgj5hzs" class="animable"></path><path d="M152.79,205.79a8.83,8.83,0,0,1,8.8,5.88c1.85,4.7,5.53,15.14,7.41,20.52a1.55,1.55,0,0,0,2.84.21l2.51-4.73s3.71.7,5.1,3.94-7,12.08-11.36,12.06c-4.9,0-11.26-12-13-17.47A52.27,52.27,0,0,1,152.79,205.79Z" style="fill: #40FF56; transform-origin: 166.101px 224.724px;" id="ellylio5vkpdi" class="animable"></path><g id="el166qajpa735"><path d="M152.79,205.79a8.83,8.83,0,0,1,8.8,5.88c1.85,4.7,5.53,15.14,7.41,20.52a1.55,1.55,0,0,0,2.84.21l2.51-4.73s3.71.7,5.1,3.94-7,12.08-11.36,12.06c-4.9,0-11.26-12-13-17.47A52.27,52.27,0,0,1,152.79,205.79Z" style="fill: rgb(255, 255, 255); opacity: 0.1; transform-origin: 166.101px 224.724px;" class="animable" id="elxch5x5uznri"></path></g></g><defs>     <filter id="active" height="200%">         <feMorphology in="SourceAlpha" result="DILATED" operator="dilate" radius="2"></feMorphology>                <feFlood flood-color="#32DFEC" flood-opacity="1" result="PINK"></feFlood>        <feComposite in="PINK" in2="DILATED" operator="in" result="OUTLINE"></feComposite>        <feMerge>            <feMergeNode in="OUTLINE"></feMergeNode>            <feMergeNode in="SourceGraphic"></feMergeNode>        </feMerge>    </filter>    <filter id="hover" height="200%">        <feMorphology in="SourceAlpha" result="DILATED" operator="dilate" radius="2"></feMorphology>                <feFlood flood-color="#ff0000" flood-opacity="0.5" result="PINK"></feFlood>        <feComposite in="PINK" in2="DILATED" operator="in" result="OUTLINE"></feComposite>        <feMerge>            <feMergeNode in="OUTLINE"></feMergeNode>            <feMergeNode in="SourceGraphic"></feMergeNode>        </feMerge>            <feColorMatrix type="matrix" values="0   0   0   0   0                0   1   0   0   0                0   0   0   0   0                0   0   0   1   0 "></feColorMatrix>    </filter></defs></svg>